<mxfile host="app.diagrams.net" modified="2023-08-07T12:01:09.750Z" agent="Mozilla/5.0 (Windows NT 10.0; Win64; x64) AppleWebKit/537.36 (KHTML, like Gecko) Chrome/115.0.0.0 Safari/537.36 Edg/115.0.1901.188" etag="OuEXCCsEF13Akrr_sfNt" version="21.6.6" type="github">
  <diagram name="Page-1" id="2aZ6atmnL2gQX-cTeMpC">
    <mxGraphModel dx="2273" dy="773" grid="1" gridSize="10" guides="1" tooltips="1" connect="1" arrows="1" fold="1" page="1" pageScale="1" pageWidth="850" pageHeight="1100" math="0" shadow="0">
      <root>
        <mxCell id="0" />
        <mxCell id="1" parent="0" />
        <mxCell id="Ji9Gv5RhBj5iGRy7pM0W-1" value="" style="sketch=0;points=[[0,0,0],[0.25,0,0],[0.5,0,0],[0.75,0,0],[1,0,0],[0,1,0],[0.25,1,0],[0.5,1,0],[0.75,1,0],[1,1,0],[0,0.25,0],[0,0.5,0],[0,0.75,0],[1,0.25,0],[1,0.5,0],[1,0.75,0]];outlineConnect=0;fontColor=#232F3E;gradientColor=#4D72F3;gradientDirection=north;fillColor=#3334B9;strokeColor=#ffffff;dashed=0;verticalLabelPosition=bottom;verticalAlign=top;align=center;html=1;fontSize=12;fontStyle=0;aspect=fixed;shape=mxgraph.aws4.resourceIcon;resIcon=mxgraph.aws4.professional_services;" vertex="1" parent="1">
          <mxGeometry x="360" y="40" width="78" height="78" as="geometry" />
        </mxCell>
        <mxCell id="Ji9Gv5RhBj5iGRy7pM0W-2" value="" style="outlineConnect=0;dashed=0;verticalLabelPosition=bottom;verticalAlign=top;align=center;html=1;shape=mxgraph.aws3.classic_load_balancer;fillColor=#F58534;gradientColor=none;" vertex="1" parent="1">
          <mxGeometry x="364.5" y="180" width="69" height="72" as="geometry" />
        </mxCell>
        <mxCell id="Ji9Gv5RhBj5iGRy7pM0W-3" value="&lt;b&gt;&lt;font face=&quot;Comic Sans MS&quot;&gt;INGRESS&lt;/font&gt;&lt;/b&gt;" style="shape=process;whiteSpace=wrap;html=1;backgroundOutline=1;fillColor=#66B2FF;" vertex="1" parent="1">
          <mxGeometry x="180" y="290" width="120" height="60" as="geometry" />
        </mxCell>
        <mxCell id="Ji9Gv5RhBj5iGRy7pM0W-5" value="" style="strokeColor=#dddddd;shadow=1;strokeWidth=1;rounded=1;absoluteArcSize=1;arcSize=2;" vertex="1" parent="1">
          <mxGeometry x="425" y="290" width="130" height="60" as="geometry" />
        </mxCell>
        <mxCell id="Ji9Gv5RhBj5iGRy7pM0W-6" value="&lt;h4&gt;&lt;b&gt;&lt;font color=&quot;#000000&quot; face=&quot;Comic Sans MS&quot;&gt;&amp;nbsp; &amp;nbsp; Service&lt;/font&gt;&lt;/b&gt;&lt;/h4&gt;" style="sketch=0;dashed=0;connectable=0;html=1;fillColor=#5184F3;strokeColor=none;shape=mxgraph.gcp2.kubernetes_logo;part=1;labelPosition=right;verticalLabelPosition=middle;align=left;verticalAlign=middle;spacingLeft=5;fontColor=#999999;fontSize=12;" vertex="1" parent="Ji9Gv5RhBj5iGRy7pM0W-5">
          <mxGeometry width="45" height="43.65" relative="1" as="geometry">
            <mxPoint x="5" y="7.675000000000001" as="offset" />
          </mxGeometry>
        </mxCell>
        <mxCell id="Ji9Gv5RhBj5iGRy7pM0W-7" value="" style="outlineConnect=0;dashed=0;verticalLabelPosition=bottom;verticalAlign=top;align=center;html=1;shape=mxgraph.aws3.android;fillColor=#8CC64F;gradientColor=none;" vertex="1" parent="1">
          <mxGeometry x="203.25" y="440" width="73.5" height="84" as="geometry" />
        </mxCell>
        <mxCell id="Ji9Gv5RhBj5iGRy7pM0W-8" value="" style="outlineConnect=0;dashed=0;verticalLabelPosition=bottom;verticalAlign=top;align=center;html=1;shape=mxgraph.aws3.android;fillColor=#8CC64F;gradientColor=none;" vertex="1" parent="1">
          <mxGeometry x="453.25" y="440" width="73.5" height="84" as="geometry" />
        </mxCell>
        <mxCell id="Ji9Gv5RhBj5iGRy7pM0W-9" value="" style="strokeColor=#dddddd;shadow=1;strokeWidth=1;rounded=1;absoluteArcSize=1;arcSize=2;" vertex="1" parent="1">
          <mxGeometry x="-40" y="770" width="130" height="60" as="geometry" />
        </mxCell>
        <mxCell id="Ji9Gv5RhBj5iGRy7pM0W-10" value="&lt;h4&gt;&lt;b&gt;&lt;font color=&quot;#000000&quot; face=&quot;Comic Sans MS&quot;&gt;&amp;nbsp; &amp;nbsp; Service&lt;/font&gt;&lt;/b&gt;&lt;/h4&gt;" style="sketch=0;dashed=0;connectable=0;html=1;fillColor=#5184F3;strokeColor=none;shape=mxgraph.gcp2.kubernetes_logo;part=1;labelPosition=right;verticalLabelPosition=middle;align=left;verticalAlign=middle;spacingLeft=5;fontColor=#999999;fontSize=12;" vertex="1" parent="Ji9Gv5RhBj5iGRy7pM0W-9">
          <mxGeometry width="45" height="43.65" relative="1" as="geometry">
            <mxPoint x="5" y="7.675000000000001" as="offset" />
          </mxGeometry>
        </mxCell>
        <mxCell id="Ji9Gv5RhBj5iGRy7pM0W-11" value="" style="strokeColor=#dddddd;shadow=1;strokeWidth=1;rounded=1;absoluteArcSize=1;arcSize=2;" vertex="1" parent="1">
          <mxGeometry x="453.25" y="760" width="130" height="60" as="geometry" />
        </mxCell>
        <mxCell id="Ji9Gv5RhBj5iGRy7pM0W-12" value="&lt;h4&gt;&lt;b&gt;&lt;font color=&quot;#000000&quot; face=&quot;Comic Sans MS&quot;&gt;&amp;nbsp; &amp;nbsp; Service&lt;/font&gt;&lt;/b&gt;&lt;/h4&gt;" style="sketch=0;dashed=0;connectable=0;html=1;fillColor=#5184F3;strokeColor=none;shape=mxgraph.gcp2.kubernetes_logo;part=1;labelPosition=right;verticalLabelPosition=middle;align=left;verticalAlign=middle;spacingLeft=5;fontColor=#999999;fontSize=12;" vertex="1" parent="Ji9Gv5RhBj5iGRy7pM0W-11">
          <mxGeometry width="45" height="43.65" relative="1" as="geometry">
            <mxPoint x="5" y="7.675000000000001" as="offset" />
          </mxGeometry>
        </mxCell>
        <mxCell id="Ji9Gv5RhBj5iGRy7pM0W-13" value="" style="strokeColor=#dddddd;shadow=1;strokeWidth=1;rounded=1;absoluteArcSize=1;arcSize=2;" vertex="1" parent="1">
          <mxGeometry x="203.25" y="760" width="130" height="60" as="geometry" />
        </mxCell>
        <mxCell id="Ji9Gv5RhBj5iGRy7pM0W-14" value="&lt;h4&gt;&lt;b&gt;&lt;font color=&quot;#000000&quot; face=&quot;Comic Sans MS&quot;&gt;&amp;nbsp; &amp;nbsp; Service&lt;/font&gt;&lt;/b&gt;&lt;/h4&gt;" style="sketch=0;dashed=0;connectable=0;html=1;fillColor=#5184F3;strokeColor=none;shape=mxgraph.gcp2.kubernetes_logo;part=1;labelPosition=right;verticalLabelPosition=middle;align=left;verticalAlign=middle;spacingLeft=5;fontColor=#999999;fontSize=12;" vertex="1" parent="Ji9Gv5RhBj5iGRy7pM0W-13">
          <mxGeometry width="45" height="43.65" relative="1" as="geometry">
            <mxPoint x="5" y="7.675000000000001" as="offset" />
          </mxGeometry>
        </mxCell>
        <mxCell id="Ji9Gv5RhBj5iGRy7pM0W-15" value="" style="strokeColor=#dddddd;shadow=1;strokeWidth=1;rounded=1;absoluteArcSize=1;arcSize=2;" vertex="1" parent="1">
          <mxGeometry x="695" y="760" width="130" height="60" as="geometry" />
        </mxCell>
        <mxCell id="Ji9Gv5RhBj5iGRy7pM0W-16" value="&lt;h4&gt;&lt;b&gt;&lt;font color=&quot;#000000&quot; face=&quot;Comic Sans MS&quot;&gt;&amp;nbsp; &amp;nbsp; Service&lt;/font&gt;&lt;/b&gt;&lt;/h4&gt;" style="sketch=0;dashed=0;connectable=0;html=1;fillColor=#5184F3;strokeColor=none;shape=mxgraph.gcp2.kubernetes_logo;part=1;labelPosition=right;verticalLabelPosition=middle;align=left;verticalAlign=middle;spacingLeft=5;fontColor=#999999;fontSize=12;" vertex="1" parent="Ji9Gv5RhBj5iGRy7pM0W-15">
          <mxGeometry width="45" height="43.65" relative="1" as="geometry">
            <mxPoint x="5" y="7.675000000000001" as="offset" />
          </mxGeometry>
        </mxCell>
        <mxCell id="Ji9Gv5RhBj5iGRy7pM0W-17" value="" style="shape=image;html=1;verticalAlign=top;verticalLabelPosition=bottom;labelBackgroundColor=#ffffff;imageAspect=0;aspect=fixed;image=https://cdn2.iconfinder.com/data/icons/boxicons-logos/24/bxl-spring-boot-128.png" vertex="1" parent="1">
          <mxGeometry x="-50" y="920" width="60" height="60" as="geometry" />
        </mxCell>
        <mxCell id="Ji9Gv5RhBj5iGRy7pM0W-18" value="" style="shape=image;html=1;verticalAlign=top;verticalLabelPosition=bottom;labelBackgroundColor=#ffffff;imageAspect=0;aspect=fixed;image=https://cdn2.iconfinder.com/data/icons/boxicons-logos/24/bxl-spring-boot-128.png" vertex="1" parent="1">
          <mxGeometry x="120" y="920" width="60" height="60" as="geometry" />
        </mxCell>
        <mxCell id="Ji9Gv5RhBj5iGRy7pM0W-19" value="" style="shape=image;html=1;verticalAlign=top;verticalLabelPosition=bottom;labelBackgroundColor=#ffffff;imageAspect=0;aspect=fixed;image=https://cdn2.iconfinder.com/data/icons/boxicons-logos/24/bxl-spring-boot-128.png" vertex="1" parent="1">
          <mxGeometry x="480" y="920" width="60" height="60" as="geometry" />
        </mxCell>
        <mxCell id="Ji9Gv5RhBj5iGRy7pM0W-20" value="" style="shape=image;html=1;verticalAlign=top;verticalLabelPosition=bottom;labelBackgroundColor=#ffffff;imageAspect=0;aspect=fixed;image=https://cdn2.iconfinder.com/data/icons/boxicons-logos/24/bxl-spring-boot-128.png" vertex="1" parent="1">
          <mxGeometry x="290" y="920" width="60" height="60" as="geometry" />
        </mxCell>
        <mxCell id="Ji9Gv5RhBj5iGRy7pM0W-21" value="" style="shape=image;html=1;verticalAlign=top;verticalLabelPosition=bottom;labelBackgroundColor=#ffffff;imageAspect=0;aspect=fixed;image=https://cdn2.iconfinder.com/data/icons/boxicons-logos/24/bxl-spring-boot-128.png" vertex="1" parent="1">
          <mxGeometry x="680" y="920" width="60" height="60" as="geometry" />
        </mxCell>
        <mxCell id="Ji9Gv5RhBj5iGRy7pM0W-25" value="" style="sketch=0;points=[[0,0,0],[0.25,0,0],[0.5,0,0],[0.75,0,0],[1,0,0],[0,1,0],[0.25,1,0],[0.5,1,0],[0.75,1,0],[1,1,0],[0,0.25,0],[0,0.5,0],[0,0.75,0],[1,0.25,0],[1,0.5,0],[1,0.75,0]];outlineConnect=0;fontColor=#232F3E;gradientColor=#FF4F8B;gradientDirection=north;fillColor=#BC1356;strokeColor=#ffffff;dashed=0;verticalLabelPosition=bottom;verticalAlign=top;align=center;html=1;fontSize=12;fontStyle=0;aspect=fixed;shape=mxgraph.aws4.resourceIcon;resIcon=mxgraph.aws4.api_gateway;" vertex="1" parent="1">
          <mxGeometry x="316.75" y="570" width="121.25" height="121.25" as="geometry" />
        </mxCell>
        <mxCell id="Ji9Gv5RhBj5iGRy7pM0W-27" value="" style="strokeColor=#dddddd;shadow=1;strokeWidth=1;rounded=1;absoluteArcSize=1;arcSize=2;" vertex="1" parent="1">
          <mxGeometry x="120" y="1080" width="130" height="60" as="geometry" />
        </mxCell>
        <mxCell id="Ji9Gv5RhBj5iGRy7pM0W-28" value="&lt;h4&gt;&lt;b&gt;&lt;font color=&quot;#000000&quot; face=&quot;Comic Sans MS&quot;&gt;&amp;nbsp; &amp;nbsp; Service&lt;/font&gt;&lt;/b&gt;&lt;/h4&gt;" style="sketch=0;dashed=0;connectable=0;html=1;fillColor=#5184F3;strokeColor=none;shape=mxgraph.gcp2.kubernetes_logo;part=1;labelPosition=right;verticalLabelPosition=middle;align=left;verticalAlign=middle;spacingLeft=5;fontColor=#999999;fontSize=12;" vertex="1" parent="Ji9Gv5RhBj5iGRy7pM0W-27">
          <mxGeometry width="45" height="43.65" relative="1" as="geometry">
            <mxPoint x="5" y="7.675000000000001" as="offset" />
          </mxGeometry>
        </mxCell>
        <mxCell id="Ji9Gv5RhBj5iGRy7pM0W-31" value="" style="strokeColor=#dddddd;shadow=1;strokeWidth=1;rounded=1;absoluteArcSize=1;arcSize=2;" vertex="1" parent="1">
          <mxGeometry x="453.25" y="1080" width="130" height="60" as="geometry" />
        </mxCell>
        <mxCell id="Ji9Gv5RhBj5iGRy7pM0W-32" value="&lt;h4&gt;&lt;b&gt;&lt;font color=&quot;#000000&quot; face=&quot;Comic Sans MS&quot;&gt;&amp;nbsp; &amp;nbsp; Service&lt;/font&gt;&lt;/b&gt;&lt;/h4&gt;" style="sketch=0;dashed=0;connectable=0;html=1;fillColor=#5184F3;strokeColor=none;shape=mxgraph.gcp2.kubernetes_logo;part=1;labelPosition=right;verticalLabelPosition=middle;align=left;verticalAlign=middle;spacingLeft=5;fontColor=#999999;fontSize=12;" vertex="1" parent="Ji9Gv5RhBj5iGRy7pM0W-31">
          <mxGeometry width="45" height="43.65" relative="1" as="geometry">
            <mxPoint x="5" y="7.675000000000001" as="offset" />
          </mxGeometry>
        </mxCell>
        <mxCell id="Ji9Gv5RhBj5iGRy7pM0W-36" value="" style="outlineConnect=0;dashed=0;verticalLabelPosition=bottom;verticalAlign=top;align=center;html=1;shape=mxgraph.aws3.generic_database;fillColor=#7D7C7C;gradientColor=none;" vertex="1" parent="1">
          <mxGeometry x="153.75" y="1260" width="49.5" height="64.5" as="geometry" />
        </mxCell>
        <mxCell id="Ji9Gv5RhBj5iGRy7pM0W-37" value="" style="outlineConnect=0;dashed=0;verticalLabelPosition=bottom;verticalAlign=top;align=center;html=1;shape=mxgraph.aws3.generic_database;fillColor=#7D7C7C;gradientColor=none;" vertex="1" parent="1">
          <mxGeometry x="493.5" y="1260" width="49.5" height="64.5" as="geometry" />
        </mxCell>
      </root>
    </mxGraphModel>
  </diagram>
</mxfile>
